<?xml version="1.0" encoding="UTF-8" standalone="no"?>
<svg
   xmlns:dc="http://purl.org/dc/elements/1.1/"
   xmlns:cc="http://creativecommons.org/ns#"
   xmlns:rdf="http://www.w3.org/1999/02/22-rdf-syntax-ns#"
   xmlns:svg="http://www.w3.org/2000/svg"
   xmlns="http://www.w3.org/2000/svg"
   xmlns:sodipodi="http://sodipodi.sourceforge.net/DTD/sodipodi-0.dtd"
   xmlns:inkscape="http://www.inkscape.org/namespaces/inkscape"
   version="1.1"
   id="svg2"
   xml:space="preserve"
   width="150.67247"
   height="143.21333"
   viewBox="0 0 150.67247 143.21333"
   sodipodi:docname="logo-UE-co.svg"
   inkscape:version="1.0.2 (e86c870879, 2021-01-15)"><metadata
     id="metadata8"><rdf:RDF><cc:Work
         rdf:about=""><dc:format>image/svg+xml</dc:format><dc:type
           rdf:resource="http://purl.org/dc/dcmitype/StillImage" /><dc:title></dc:title></cc:Work></rdf:RDF></metadata><defs
     id="defs6"><clipPath
       clipPathUnits="userSpaceOnUse"
       id="clipPath28"><path
         d="M 0,841.89 H 595.276 V 0 H 0 Z"
         id="path26" /></clipPath><clipPath
       clipPathUnits="userSpaceOnUse"
       id="clipPath100"><path
         d="M 20.327,405.12 H 156.635 V 510.139 H 20.327 Z"
         id="path98" /></clipPath><clipPath
       clipPathUnits="userSpaceOnUse"
       id="clipPath364"><path
         d="M 302.386,403.169 H 438.842 V 508.303 H 302.386 Z"
         id="path362" /></clipPath><clipPath
       clipPathUnits="userSpaceOnUse"
       id="clipPath622"><path
         d="M 141.962,407.164 H 285.567 V 510.229 H 141.962 Z"
         id="path620" /></clipPath><clipPath
       clipPathUnits="userSpaceOnUse"
       id="clipPath788"><path
         d="M 424.088,405.347 H 567.85 v 103.18 H 424.088 Z"
         id="path786" /></clipPath><clipPath
       clipPathUnits="userSpaceOnUse"
       id="clipPath992"><path
         d="M 20.624,29.484 H 156.931 V 134.502 H 20.624 Z"
         id="path990" /></clipPath><clipPath
       clipPathUnits="userSpaceOnUse"
       id="clipPath1212"><path
         d="M 20.327,195.011 H 156.634 V 300.029 H 20.327 Z"
         id="path1210" /></clipPath><clipPath
       clipPathUnits="userSpaceOnUse"
       id="clipPath1474"><path
         d="M 147.61,195.195 H 284.067 V 300.329 H 147.61 Z"
         id="path1472" /></clipPath><clipPath
       clipPathUnits="userSpaceOnUse"
       id="clipPath1690"><path
         d="M 302.386,195.304 H 438.693 V 300.322 H 302.386 Z"
         id="path1688" /></clipPath><clipPath
       clipPathUnits="userSpaceOnUse"
       id="clipPath1952"><path
         d="M 431.544,195.204 H 567.851 V 300.222 H 431.544 Z"
         id="path1950" /></clipPath><clipPath
       clipPathUnits="userSpaceOnUse"
       id="clipPath2220"><path
         d="M 195.517,585.606 H 369.018 V 719.281 H 195.517 Z"
         id="path2218" /></clipPath></defs><sodipodi:namedview
     pagecolor="#ffffff"
     bordercolor="#666666"
     borderopacity="1"
     objecttolerance="10"
     gridtolerance="10"
     guidetolerance="10"
     inkscape:pageopacity="0"
     inkscape:pageshadow="2"
     inkscape:window-width="1680"
     inkscape:window-height="999"
     id="namedview4"
     showgrid="false"
     fit-margin-top="3"
     fit-margin-left="3"
     fit-margin-bottom="3"
     fit-margin-right="3"
     inkscape:zoom="0.64764992"
     inkscape:cx="187.16802"
     inkscape:cy="186.50488"
     inkscape:window-x="0"
     inkscape:window-y="27"
     inkscape:window-maximized="1"
     inkscape:current-layer="g10" /><g
     id="g10"
     inkscape:groupmode="layer"
     inkscape:label="eu-emblem-rules_fr"
     transform="matrix(1.3333333,0,0,-1.3333333,-209.68266,683.30665)"><path
       d="m 162.458,440.53 h 102.613 v 69.7 H 162.458 Z"
       style="fill:#ffffff;fill-opacity:1;fill-rule:nonzero;stroke:none"
       id="path564" /><path
       d="m 164.432,508.319 h 98.665 v -65.778 h -98.665 z"
       style="fill:#034ea2;fill-opacity:1;fill-rule:nonzero;stroke:none"
       id="path566" /><g
       id="g568"
       transform="translate(211.6621,493.9877)"><path
         d="M 0,0 2.082,1.519 4.164,0 3.372,2.457 5.486,3.977 H 2.88 L 2.082,6.463 1.284,3.974 -1.321,3.977 0.793,2.457 Z"
         style="fill:#fcee1d;fill-opacity:1;fill-rule:nonzero;stroke:none"
         id="path570" /></g><g
       id="g572"
       transform="translate(200.888,491.0928)"><path
         d="M 0,0 2.082,1.519 4.163,0 3.372,2.457 5.485,3.977 H 2.879 L 2.081,6.466 1.283,3.974 -1.322,3.977 0.791,2.457 Z"
         style="fill:#fcee1d;fill-opacity:1;fill-rule:nonzero;stroke:none"
         id="path574" /></g><g
       id="g576"
       transform="translate(195.0865,489.6577)"><path
         d="M 0,0 -0.798,-2.492 -3.403,-2.489 -1.29,-4.009 -2.082,-6.466 0,-4.947 2.082,-6.466 1.29,-4.009 3.403,-2.489 H 0.798 Z"
         style="fill:#fcee1d;fill-opacity:1;fill-rule:nonzero;stroke:none"
         id="path578" /></g><g
       id="g580"
       transform="translate(192.1946,473.9507)"><path
         d="M 0,0 2.081,-1.519 1.29,0.938 3.403,2.457 H 0.798 L 0,4.947 -0.798,2.452 -3.404,2.457 -1.29,0.938 -2.082,-1.519 Z"
         style="fill:#fcee1d;fill-opacity:1;fill-rule:nonzero;stroke:none"
         id="path582" /></g><g
       id="g584"
       transform="translate(195.8842,465.6146)"><path
         d="M 0,0 -0.798,2.489 -1.596,-0.003 -4.201,0 -2.088,-1.519 -2.88,-3.977 -0.798,-2.455 1.284,-3.977 0.492,-1.519 2.605,0 Z"
         style="fill:#fcee1d;fill-opacity:1;fill-rule:nonzero;stroke:none"
         id="path586" /></g><g
       id="g588"
       transform="translate(203.7828,457.7162)"><path
         d="M 0,0 -0.798,2.486 -1.594,-0.003 -4.201,0 l 2.113,-1.519 -0.791,-2.458 2.083,1.52 2.08,-1.52 L 0.493,-1.519 2.606,0 Z"
         style="fill:#fcee1d;fill-opacity:1;fill-rule:nonzero;stroke:none"
         id="path590" /></g><g
       id="g592"
       transform="translate(214.5432,454.8542)"><path
         d="M 0,0 -0.798,2.489 -1.594,-0.003 -4.201,0 l 2.113,-1.519 -0.791,-2.458 2.083,1.52 2.08,-1.52 L 0.492,-1.519 2.606,0 Z"
         style="fill:#fcee1d;fill-opacity:1;fill-rule:nonzero;stroke:none"
         id="path594" /></g><g
       id="g596"
       transform="translate(225.3037,457.7162)"><path
         d="m 0,0 -0.796,2.486 -0.8,-2.489 -2.603,0.003 2.111,-1.519 -0.79,-2.458 2.082,1.52 2.082,-1.52 L 0.492,-1.519 2.606,0 Z"
         style="fill:#fcee1d;fill-opacity:1;fill-rule:nonzero;stroke:none"
         id="path598" /></g><g
       id="g600"
       transform="translate(233.2048,465.6146)"><path
         d="M 0,0 -0.799,2.489 -1.598,-0.003 -4.202,0 -2.088,-1.519 -2.881,-3.977 -0.799,-2.455 1.283,-3.977 0.49,-1.519 2.604,0 Z"
         style="fill:#fcee1d;fill-opacity:1;fill-rule:nonzero;stroke:none"
         id="path602" /></g><g
       id="g604"
       transform="translate(238.6709,476.4374)"><path
         d="m 0,0 h -2.606 l -0.8,2.49 -0.796,-2.493 -2.607,0.003 2.115,-1.519 -0.791,-2.458 2.079,1.523 2.082,-1.523 -0.79,2.458 z"
         style="fill:#fcee1d;fill-opacity:1;fill-rule:nonzero;stroke:none"
         id="path606" /></g><g
       id="g608"
       transform="translate(230.3239,483.2246)"><path
         d="M 0,0 2.082,1.519 4.164,0 3.371,2.457 5.485,3.973 H 2.881 L 2.082,6.463 1.283,3.971 -1.321,3.973 0.794,2.457 Z"
         style="fill:#fcee1d;fill-opacity:1;fill-rule:nonzero;stroke:none"
         id="path610" /></g><g
       id="g612"
       transform="translate(224.5374,497.5561)"><path
         d="m 0,0 -0.797,-2.492 -2.606,0.006 2.112,-1.523 -0.791,-2.457 2.084,1.522 2.08,-1.522 -0.791,2.457 2.115,1.523 h -2.61 z"
         style="fill:#fcee1d;fill-opacity:1;fill-rule:nonzero;stroke:none"
         id="path614" /></g><g
       id="g616"><g
         id="g618"
         clip-path="url(#clipPath622)"><g
           id="g624"
           transform="translate(180.5959,426.8558)"><path
             d="M 0,0 1.649,-0.523 C 1.396,-1.442 0.975,-2.125 0.388,-2.57 -0.2,-3.018 -0.946,-3.24 -1.85,-3.24 c -1.118,0 -2.037,0.382 -2.758,1.146 -0.72,0.764 -1.079,1.809 -1.079,3.133 0,1.403 0.362,2.491 1.086,3.267 0.723,0.776 1.675,1.164 2.855,1.164 1.03,0 1.866,-0.306 2.51,-0.915 0.383,-0.36 0.67,-0.876 0.862,-1.551 L -0.058,2.603 c -0.099,0.436 -0.307,0.78 -0.623,1.034 -0.316,0.252 -0.699,0.378 -1.152,0.378 -0.624,0 -1.131,-0.223 -1.519,-0.672 -0.389,-0.448 -0.583,-1.174 -0.583,-2.177 0,-1.065 0.191,-1.823 0.574,-2.275 0.383,-0.452 0.881,-0.678 1.494,-0.678 0.452,0 0.841,0.143 1.166,0.431 C -0.375,-1.069 -0.142,-0.617 0,0"
             style="fill:#034ea2;fill-opacity:1;fill-rule:nonzero;stroke:none"
             id="path626" /></g><g
           id="g628"
           transform="translate(184.9736,426.8099)"><path
             d="m 0,0 c 0,-0.605 0.143,-1.069 0.431,-1.391 0.287,-0.321 0.641,-0.482 1.063,-0.482 0.421,0 0.774,0.161 1.06,0.482 0.285,0.322 0.428,0.789 0.428,1.402 0,0.597 -0.143,1.057 -0.428,1.378 C 2.268,1.712 1.915,1.872 1.494,1.872 1.072,1.872 0.718,1.712 0.431,1.389 0.143,1.068 0,0.605 0,0 m -1.654,0.086 c 0,0.536 0.132,1.055 0.396,1.557 0.264,0.502 0.638,0.885 1.123,1.148 0.485,0.265 1.025,0.397 1.623,0.397 0.923,0 1.679,-0.3 2.269,-0.899 0.59,-0.599 0.885,-1.356 0.885,-2.272 0,-0.923 -0.298,-1.688 -0.894,-2.295 -0.595,-0.607 -1.344,-0.91 -2.249,-0.91 -0.559,0 -1.092,0.126 -1.6,0.379 -0.507,0.253 -0.893,0.623 -1.157,1.111 -0.264,0.488 -0.396,1.083 -0.396,1.784"
             style="fill:#034ea2;fill-opacity:1;fill-rule:nonzero;stroke:none"
             id="path630" /></g><path
           d="m 194.746,429.86 h 1.615 v -6.101 h -1.615 z m 0,2.321 h 1.615 v -1.494 h -1.615 z m -4.533,-2.321 h 0.896 v 0.46 c 0,0.514 0.054,0.896 0.164,1.148 0.109,0.254 0.31,0.459 0.603,0.618 0.293,0.159 0.663,0.24 1.112,0.24 0.46,0 0.909,-0.07 1.35,-0.208 l -0.219,-1.125 c -0.256,0.06 -0.503,0.091 -0.741,0.091 -0.234,0 -0.401,-0.054 -0.503,-0.164 -0.101,-0.109 -0.151,-0.318 -0.151,-0.629 v -0.431 h 1.206 v -1.27 h -1.206 v -4.831 h -1.615 v 4.831 h -0.896 z"
           style="fill:#034ea2;fill-opacity:1;fill-rule:nonzero;stroke:none"
           id="path632" /><g
           id="g634"
           transform="translate(203.6151,423.7591)"><path
             d="m 0,0 h -1.614 v 3.114 c 0,0.658 -0.034,1.085 -0.103,1.278 -0.069,0.194 -0.182,0.343 -0.336,0.451 -0.156,0.107 -0.342,0.161 -0.561,0.161 -0.279,0 -0.53,-0.077 -0.752,-0.23 C -3.588,4.621 -3.741,4.418 -3.823,4.165 -3.906,3.912 -3.946,3.444 -3.946,2.763 V 0 h -1.615 v 6.101 h 1.5 V 5.205 c 0.532,0.69 1.202,1.034 2.01,1.034 0.357,0 0.682,-0.064 0.977,-0.193 0.295,-0.127 0.518,-0.292 0.669,-0.49 C -0.253,5.357 -0.148,5.13 -0.089,4.878 -0.03,4.624 0,4.262 0,3.792 Z"
             style="fill:#034ea2;fill-opacity:1;fill-rule:nonzero;stroke:none"
             id="path636" /></g><g
           id="g638"
           transform="translate(208.6192,426.689)"><path
             d="m 0,0 c -0.207,-0.069 -0.534,-0.152 -0.982,-0.246 -0.448,-0.097 -0.741,-0.19 -0.879,-0.282 -0.211,-0.15 -0.316,-0.339 -0.316,-0.569 0,-0.226 0.084,-0.421 0.253,-0.587 0.168,-0.164 0.383,-0.246 0.643,-0.246 0.291,0 0.569,0.096 0.833,0.287 0.195,0.145 0.324,0.324 0.385,0.534 0.042,0.138 0.063,0.4 0.063,0.788 z m -2.16,1.31 -1.465,0.265 c 0.165,0.589 0.448,1.026 0.851,1.309 0.402,0.283 0.999,0.425 1.792,0.425 0.72,0 1.256,-0.085 1.608,-0.256 C 0.979,2.883 1.226,2.667 1.37,2.404 1.514,2.142 1.586,1.661 1.586,0.959 L 1.569,-0.925 c 0,-0.536 0.025,-0.931 0.077,-1.187 0.052,-0.254 0.149,-0.527 0.29,-0.818 H 0.339 C 0.297,-2.823 0.245,-2.664 0.184,-2.452 0.157,-2.358 0.138,-2.294 0.127,-2.263 -0.149,-2.532 -0.444,-2.732 -0.759,-2.866 -1.072,-3 -1.407,-3.068 -1.763,-3.068 c -0.629,0 -1.123,0.17 -1.485,0.512 -0.362,0.34 -0.544,0.771 -0.544,1.292 0,0.345 0.083,0.652 0.248,0.922 0.164,0.271 0.395,0.477 0.692,0.621 0.297,0.143 0.725,0.269 1.284,0.376 0.755,0.142 1.277,0.273 1.568,0.397 v 0.16 c 0,0.311 -0.077,0.532 -0.23,0.664 -0.153,0.133 -0.442,0.198 -0.867,0.198 -0.287,0 -0.512,-0.056 -0.672,-0.17 C -1.93,1.792 -2.061,1.593 -2.16,1.31"
             style="fill:#034ea2;fill-opacity:1;fill-rule:nonzero;stroke:none"
             id="path640" /></g><g
           id="g642"
           transform="translate(217.3456,423.7591)"><path
             d="m 0,0 h -1.614 v 3.114 c 0,0.658 -0.034,1.085 -0.103,1.278 -0.069,0.194 -0.182,0.343 -0.336,0.451 -0.156,0.107 -0.342,0.161 -0.561,0.161 -0.279,0 -0.53,-0.077 -0.752,-0.23 C -3.588,4.621 -3.741,4.418 -3.823,4.165 -3.906,3.912 -3.946,3.444 -3.946,2.763 V 0 h -1.615 v 6.101 h 1.5 V 5.205 c 0.532,0.69 1.202,1.034 2.01,1.034 0.357,0 0.682,-0.064 0.977,-0.193 0.295,-0.127 0.518,-0.292 0.669,-0.49 C -0.253,5.357 -0.148,5.13 -0.089,4.878 -0.03,4.624 0,4.262 0,3.792 Z"
             style="fill:#034ea2;fill-opacity:1;fill-rule:nonzero;stroke:none"
             id="path644" /></g><g
           id="g646"
           transform="translate(224.3024,428.0562)"><path
             d="m 0,0 -1.591,-0.287 c -0.054,0.318 -0.175,0.557 -0.365,0.719 -0.189,0.161 -0.436,0.24 -0.738,0.24 -0.402,0 -0.723,-0.138 -0.962,-0.416 -0.24,-0.277 -0.359,-0.742 -0.359,-1.393 0,-0.724 0.121,-1.235 0.364,-1.534 0.243,-0.299 0.57,-0.448 0.98,-0.448 0.306,0 0.557,0.087 0.753,0.261 0.195,0.174 0.332,0.474 0.413,0.899 l 1.586,-0.27 c -0.165,-0.727 -0.481,-1.278 -0.948,-1.649 -0.468,-0.371 -1.094,-0.557 -1.878,-0.557 -0.893,0 -1.605,0.282 -2.135,0.845 -0.53,0.562 -0.796,1.342 -0.796,2.338 0,1.007 0.267,1.791 0.799,2.352 0.532,0.562 1.252,0.842 2.16,0.842 0.743,0 1.334,-0.16 1.772,-0.48 C -0.506,1.142 -0.192,0.656 0,0"
             style="fill:#034ea2;fill-opacity:1;fill-rule:nonzero;stroke:none"
             id="path648" /></g><g
           id="g650"
           transform="translate(227.089,430.6075)"><path
             d="m 0,0 0.792,1.718 h 1.81 L 1.022,0 Z M 2.062,-3.275 C 2.051,-2.808 1.93,-2.453 1.7,-2.209 c -0.229,0.243 -0.509,0.365 -0.839,0.365 -0.352,0 -0.643,-0.129 -0.873,-0.385 -0.23,-0.257 -0.343,-0.605 -0.339,-1.046 z M 1.97,-4.907 3.579,-5.176 C 3.372,-5.766 3.046,-6.216 2.6,-6.524 2.153,-6.832 1.595,-6.986 0.924,-6.986 c -1.06,0 -1.846,0.346 -2.355,1.04 -0.402,0.555 -0.603,1.256 -0.603,2.103 0,1.011 0.265,1.803 0.793,2.375 0.529,0.572 1.197,0.858 2.005,0.858 0.907,0 1.624,-0.299 2.148,-0.898 0.525,-0.6 0.776,-1.517 0.753,-2.754 H -0.38 c 0.012,-0.479 0.142,-0.853 0.391,-1.119 0.249,-0.266 0.559,-0.399 0.931,-0.399 0.253,0 0.465,0.07 0.637,0.208 0.173,0.137 0.303,0.359 0.391,0.665"
             style="fill:#034ea2;fill-opacity:1;fill-rule:nonzero;stroke:none"
             id="path652" /></g><g
           id="g654"
           transform="translate(236.8892,426.9128)"><path
             d="M 0,0 C 0,-0.685 0.136,-1.191 0.408,-1.519 0.68,-1.847 1.011,-2.01 1.402,-2.01 c 0.375,0 0.687,0.15 0.937,0.451 0.248,0.3 0.373,0.793 0.373,1.479 0,0.64 -0.129,1.114 -0.385,1.425 C 2.07,1.654 1.753,1.81 1.373,1.81 0.979,1.81 0.651,1.658 0.391,1.353 0.13,1.049 0,0.597 0,0 m -1.597,2.948 h 1.505 V 2.051 c 0.196,0.307 0.46,0.555 0.793,0.747 0.333,0.192 0.703,0.287 1.109,0.287 0.708,0 1.31,-0.278 1.804,-0.833 0.494,-0.556 0.741,-1.329 0.741,-2.32 0,-1.019 -0.249,-1.811 -0.747,-2.376 -0.498,-0.565 -1.101,-0.848 -1.81,-0.848 -0.337,0 -0.642,0.068 -0.916,0.202 -0.274,0.134 -0.562,0.363 -0.865,0.689 v -3.073 h -1.614 z"
             style="fill:#034ea2;fill-opacity:1;fill-rule:nonzero;stroke:none"
             id="path656" /></g><g
           id="g658"
           transform="translate(245.8917,426.689)"><path
             d="m 0,0 c -0.207,-0.069 -0.534,-0.152 -0.982,-0.246 -0.448,-0.097 -0.741,-0.19 -0.879,-0.282 -0.211,-0.15 -0.316,-0.339 -0.316,-0.569 0,-0.226 0.084,-0.421 0.253,-0.587 0.168,-0.164 0.383,-0.246 0.643,-0.246 0.291,0 0.569,0.096 0.833,0.287 0.195,0.145 0.324,0.324 0.385,0.534 0.042,0.138 0.063,0.4 0.063,0.788 z m -2.16,1.31 -1.465,0.265 c 0.165,0.589 0.448,1.026 0.851,1.309 0.402,0.283 0.999,0.425 1.792,0.425 0.72,0 1.256,-0.085 1.608,-0.256 C 0.979,2.883 1.226,2.667 1.37,2.404 1.514,2.142 1.586,1.661 1.586,0.959 L 1.569,-0.925 c 0,-0.536 0.026,-0.931 0.077,-1.187 0.052,-0.254 0.149,-0.527 0.29,-0.818 H 0.339 C 0.297,-2.823 0.245,-2.664 0.184,-2.452 0.157,-2.358 0.138,-2.294 0.127,-2.263 -0.149,-2.532 -0.444,-2.732 -0.759,-2.866 -1.072,-3 -1.407,-3.068 -1.763,-3.068 c -0.629,0 -1.123,0.17 -1.485,0.512 -0.362,0.34 -0.544,0.771 -0.544,1.292 0,0.345 0.083,0.652 0.248,0.922 0.164,0.271 0.395,0.477 0.692,0.621 0.297,0.143 0.725,0.269 1.284,0.376 0.754,0.142 1.277,0.273 1.568,0.397 v 0.16 c 0,0.311 -0.077,0.532 -0.23,0.664 -0.153,0.133 -0.442,0.198 -0.867,0.198 -0.287,0 -0.512,-0.056 -0.672,-0.17 C -1.93,1.792 -2.061,1.593 -2.16,1.31"
             style="fill:#034ea2;fill-opacity:1;fill-rule:nonzero;stroke:none"
             id="path660" /></g><g
           id="g662"
           transform="translate(250.6145,423.7591)"><path
             d="m 0,0 h -1.614 v 6.101 h 1.499 V 5.234 c 0.257,0.41 0.488,0.68 0.692,0.81 0.205,0.13 0.438,0.195 0.698,0.195 0.368,0 0.722,-0.102 1.064,-0.305 L 1.838,4.527 C 1.566,4.703 1.314,4.792 1.08,4.792 0.854,4.792 0.663,4.729 0.505,4.605 0.348,4.48 0.225,4.255 0.135,3.93 0.045,3.604 0,2.922 0,1.884 Z"
             style="fill:#034ea2;fill-opacity:1;fill-rule:nonzero;stroke:none"
             id="path664" /></g><path
           d="m 159.512,418.063 h 1.614 v -8.422 h -1.614 z"
           style="fill:#034ea2;fill-opacity:1;fill-rule:nonzero;stroke:none"
           id="path666" /><g
           id="g668"
           transform="translate(162.7409,418.0394)"><path
             d="m 0,0 h 1.614 v -1.155 c 0,-0.467 -0.04,-0.836 -0.12,-1.105 C 1.413,-2.531 1.261,-2.773 1.037,-2.987 0.813,-3.201 0.528,-3.371 0.184,-3.493 l -0.316,0.666 c 0.325,0.108 0.557,0.255 0.695,0.443 0.138,0.187 0.211,0.444 0.219,0.77 H 0 Z"
             style="fill:#034ea2;fill-opacity:1;fill-rule:nonzero;stroke:none"
             id="path670" /></g><g
           id="g672"
           transform="translate(166.05,418.0623)"><path
             d="m 0,0 h 1.7 v -4.562 c 0,-0.723 0.022,-1.192 0.064,-1.406 0.073,-0.345 0.246,-0.622 0.52,-0.831 0.273,-0.209 0.648,-0.313 1.123,-0.313 0.482,0 0.846,0.099 1.091,0.296 0.245,0.198 0.393,0.439 0.442,0.727 0.05,0.287 0.075,0.764 0.075,1.43 V 0 H 6.716 V -4.424 C 6.716,-5.435 6.67,-6.149 6.578,-6.566 6.486,-6.984 6.316,-7.337 6.069,-7.623 5.822,-7.911 5.492,-8.139 5.078,-8.31 4.665,-8.481 4.125,-8.565 3.458,-8.565 2.654,-8.565 2.044,-8.473 1.629,-8.287 1.213,-8.101 0.885,-7.86 0.643,-7.563 0.402,-7.267 0.243,-6.955 0.166,-6.63 0.055,-6.147 0,-5.435 0,-4.492 Z"
             style="fill:#034ea2;fill-opacity:1;fill-rule:nonzero;stroke:none"
             id="path674" /></g><g
           id="g676"
           transform="translate(180.0962,409.6404)"><path
             d="m 0,0 h -1.614 v 3.114 c 0,0.658 -0.035,1.085 -0.104,1.278 -0.069,0.194 -0.181,0.344 -0.336,0.451 -0.155,0.107 -0.342,0.161 -0.56,0.161 -0.28,0 -0.53,-0.077 -0.753,-0.23 C -3.588,4.621 -3.741,4.418 -3.823,4.165 -3.906,3.912 -3.946,3.444 -3.946,2.763 V 0 h -1.615 v 6.102 h 1.499 V 5.205 c 0.533,0.69 1.203,1.034 2.011,1.034 0.356,0 0.682,-0.064 0.977,-0.193 0.295,-0.128 0.518,-0.292 0.669,-0.49 C -0.254,5.357 -0.148,5.13 -0.089,4.877 -0.03,4.624 0,4.262 0,3.792 Z"
             style="fill:#034ea2;fill-opacity:1;fill-rule:nonzero;stroke:none"
             id="path678" /></g><path
           d="m 181.734,415.742 h 1.614 v -6.102 h -1.614 z m 0,2.321 h 1.614 v -1.494 h -1.614 z"
           style="fill:#034ea2;fill-opacity:1;fill-rule:nonzero;stroke:none"
           id="path680" /><g
           id="g682"
           transform="translate(186.2834,412.6912)"><path
             d="m 0,0 c 0,-0.605 0.143,-1.069 0.431,-1.391 0.287,-0.321 0.641,-0.482 1.063,-0.482 0.421,0 0.774,0.161 1.06,0.482 0.285,0.322 0.428,0.789 0.428,1.402 0,0.598 -0.143,1.057 -0.428,1.378 C 2.268,1.712 1.915,1.872 1.494,1.872 1.072,1.872 0.718,1.712 0.431,1.389 0.143,1.068 0,0.605 0,0 m -1.654,0.086 c 0,0.536 0.132,1.055 0.396,1.557 0.264,0.502 0.638,0.885 1.123,1.148 0.485,0.265 1.025,0.397 1.623,0.397 0.923,0 1.679,-0.3 2.269,-0.898 0.59,-0.6 0.885,-1.357 0.885,-2.273 0,-0.923 -0.298,-1.688 -0.894,-2.295 -0.595,-0.607 -1.344,-0.91 -2.249,-0.91 -0.559,0 -1.092,0.126 -1.6,0.379 -0.507,0.253 -0.893,0.623 -1.157,1.111 -0.264,0.488 -0.396,1.083 -0.396,1.784"
             style="fill:#034ea2;fill-opacity:1;fill-rule:nonzero;stroke:none"
             id="path684" /></g><g
           id="g686"
           transform="translate(197.7384,409.6404)"><path
             d="m 0,0 h -1.614 v 3.114 c 0,0.658 -0.034,1.085 -0.103,1.278 -0.069,0.194 -0.182,0.344 -0.336,0.451 -0.156,0.107 -0.342,0.161 -0.561,0.161 -0.279,0 -0.53,-0.077 -0.752,-0.23 C -3.588,4.621 -3.741,4.418 -3.823,4.165 -3.906,3.912 -3.947,3.444 -3.947,2.763 V 0 h -1.614 v 6.102 h 1.5 V 5.205 c 0.532,0.69 1.202,1.034 2.01,1.034 0.357,0 0.682,-0.064 0.977,-0.193 0.295,-0.128 0.518,-0.292 0.669,-0.49 C -0.253,5.357 -0.148,5.13 -0.089,4.877 -0.03,4.624 0,4.262 0,3.792 Z"
             style="fill:#034ea2;fill-opacity:1;fill-rule:nonzero;stroke:none"
             id="path688" /></g><g
           id="g690"
           transform="translate(206.2698,413.2137)"><path
             d="m 0,0 c -0.012,0.467 -0.132,0.822 -0.362,1.066 -0.23,0.243 -0.51,0.365 -0.839,0.365 -0.352,0 -0.643,-0.128 -0.873,-0.386 C -2.304,0.789 -2.416,0.441 -2.413,0 Z M -0.092,-1.632 1.517,-1.901 C 1.31,-2.491 0.983,-2.94 0.537,-3.249 0.091,-3.557 -0.467,-3.711 -1.137,-3.711 c -1.061,0 -1.846,0.347 -2.356,1.04 -0.402,0.555 -0.604,1.256 -0.604,2.102 0,1.012 0.265,1.804 0.794,2.376 0.529,0.572 1.196,0.859 2.005,0.859 0.907,0 1.624,-0.3 2.148,-0.899 0.525,-0.6 0.775,-1.518 0.752,-2.755 h -4.044 c 0.012,-0.478 0.142,-0.851 0.391,-1.117 0.249,-0.267 0.559,-0.4 0.931,-0.4 0.253,0 0.465,0.07 0.638,0.207 0.172,0.139 0.302,0.36 0.39,0.666"
             style="fill:#034ea2;fill-opacity:1;fill-rule:nonzero;stroke:none"
             id="path692" /></g><g
           id="g694"
           transform="translate(213.2036,409.6404)"><path
             d="M 0,0 V 0.914 C -0.222,0.588 -0.514,0.331 -0.876,0.144 -1.238,-0.043 -1.62,-0.138 -2.022,-0.138 c -0.41,0 -0.778,0.09 -1.103,0.27 -0.326,0.18 -0.562,0.433 -0.707,0.759 C -3.978,1.216 -4.05,1.666 -4.05,2.24 v 3.862 h 1.614 V 3.298 c 0,-0.859 0.03,-1.384 0.09,-1.577 0.058,-0.194 0.167,-0.347 0.324,-0.46 0.157,-0.113 0.356,-0.17 0.597,-0.17 0.276,0 0.523,0.076 0.741,0.228 0.218,0.151 0.369,0.338 0.448,0.562 0.081,0.224 0.121,0.773 0.121,1.646 V 6.102 H 1.499 V 0 Z"
             style="fill:#034ea2;fill-opacity:1;fill-rule:nonzero;stroke:none"
             id="path696" /></g><g
           id="g698"
           transform="translate(217.9202,409.6404)"><path
             d="m 0,0 h -1.614 v 6.102 h 1.499 V 5.234 c 0.257,0.41 0.488,0.68 0.692,0.81 0.205,0.13 0.438,0.195 0.698,0.195 0.368,0 0.722,-0.102 1.064,-0.305 L 1.838,4.527 C 1.566,4.703 1.314,4.792 1.08,4.792 0.854,4.792 0.663,4.729 0.505,4.605 0.348,4.48 0.225,4.255 0.135,3.93 0.045,3.604 0,2.922 0,1.884 Z"
             style="fill:#034ea2;fill-opacity:1;fill-rule:nonzero;stroke:none"
             id="path700" /></g><g
           id="g702"
           transform="translate(222.2343,412.6912)"><path
             d="m 0,0 c 0,-0.605 0.144,-1.069 0.431,-1.391 0.287,-0.321 0.641,-0.482 1.063,-0.482 0.421,0 0.774,0.161 1.06,0.482 0.285,0.322 0.427,0.789 0.427,1.402 0,0.598 -0.142,1.057 -0.427,1.378 C 2.268,1.712 1.915,1.872 1.494,1.872 1.072,1.872 0.718,1.712 0.431,1.389 0.144,1.068 0,0.605 0,0 m -1.654,0.086 c 0,0.536 0.131,1.055 0.396,1.557 0.264,0.502 0.639,0.885 1.123,1.148 0.485,0.265 1.025,0.397 1.622,0.397 0.924,0 1.68,-0.3 2.27,-0.898 0.59,-0.6 0.885,-1.357 0.885,-2.273 0,-0.923 -0.298,-1.688 -0.894,-2.295 -0.595,-0.607 -1.345,-0.91 -2.248,-0.91 -0.56,0 -1.093,0.126 -1.601,0.379 -0.507,0.253 -0.893,0.623 -1.157,1.111 -0.265,0.488 -0.396,1.083 -0.396,1.784"
             style="fill:#034ea2;fill-opacity:1;fill-rule:nonzero;stroke:none"
             id="path704" /></g><g
           id="g706"
           transform="translate(229.6911,412.794)"><path
             d="M 0,0 C 0,-0.685 0.136,-1.191 0.408,-1.519 0.68,-1.847 1.011,-2.01 1.402,-2.01 c 0.375,0 0.687,0.15 0.937,0.451 0.248,0.3 0.373,0.793 0.373,1.479 0,0.64 -0.129,1.114 -0.385,1.425 C 2.07,1.654 1.752,1.81 1.373,1.81 0.979,1.81 0.651,1.658 0.39,1.353 0.13,1.049 0,0.597 0,0 m -1.597,2.948 h 1.505 V 2.051 c 0.196,0.307 0.46,0.556 0.793,0.748 0.333,0.191 0.703,0.286 1.109,0.286 0.708,0 1.31,-0.277 1.804,-0.833 0.494,-0.556 0.741,-1.329 0.741,-2.32 0,-1.019 -0.249,-1.811 -0.747,-2.376 -0.498,-0.565 -1.101,-0.848 -1.81,-0.848 -0.337,0 -0.642,0.068 -0.916,0.202 -0.274,0.134 -0.562,0.363 -0.865,0.69 v -3.074 h -1.614 z"
             style="fill:#034ea2;fill-opacity:1;fill-rule:nonzero;stroke:none"
             id="path708" /></g><g
           id="g710"
           transform="translate(236.8903,416.4888)"><path
             d="m 0,0 0.792,1.718 h 1.81 L 1.022,0 Z M 2.062,-3.275 C 2.051,-2.808 1.93,-2.453 1.7,-2.209 c -0.229,0.243 -0.509,0.365 -0.839,0.365 -0.352,0 -0.643,-0.129 -0.873,-0.386 -0.23,-0.256 -0.343,-0.604 -0.339,-1.045 z M 1.97,-4.907 3.579,-5.176 C 3.372,-5.766 3.046,-6.216 2.6,-6.524 2.153,-6.832 1.595,-6.986 0.924,-6.986 c -1.06,0 -1.846,0.346 -2.355,1.04 -0.402,0.555 -0.603,1.256 -0.603,2.103 0,1.011 0.265,1.803 0.793,2.375 0.529,0.572 1.197,0.858 2.005,0.858 0.907,0 1.624,-0.299 2.148,-0.898 0.525,-0.6 0.776,-1.517 0.753,-2.754 H -0.38 c 0.012,-0.479 0.142,-0.853 0.391,-1.119 0.249,-0.266 0.559,-0.399 0.931,-0.399 0.253,0 0.465,0.07 0.637,0.208 0.173,0.137 0.303,0.359 0.391,0.665"
             style="fill:#034ea2;fill-opacity:1;fill-rule:nonzero;stroke:none"
             id="path712" /></g><g
           id="g714"
           transform="translate(245.4955,413.2137)"><path
             d="m 0,0 c -0.012,0.467 -0.132,0.822 -0.362,1.066 -0.23,0.243 -0.51,0.365 -0.839,0.365 -0.352,0 -0.643,-0.128 -0.873,-0.386 C -2.304,0.789 -2.416,0.441 -2.413,0 Z M -0.092,-1.632 1.517,-1.901 C 1.31,-2.491 0.983,-2.94 0.537,-3.249 0.091,-3.557 -0.467,-3.711 -1.137,-3.711 c -1.061,0 -1.846,0.347 -2.356,1.04 -0.402,0.555 -0.604,1.256 -0.604,2.102 0,1.012 0.265,1.804 0.794,2.376 0.529,0.572 1.196,0.859 2.005,0.859 0.907,0 1.624,-0.3 2.148,-0.899 0.525,-0.6 0.775,-1.518 0.752,-2.755 h -4.044 c 0.012,-0.478 0.142,-0.851 0.391,-1.117 0.249,-0.267 0.559,-0.4 0.931,-0.4 0.253,0 0.465,0.07 0.638,0.207 0.172,0.139 0.302,0.36 0.39,0.666"
             style="fill:#034ea2;fill-opacity:1;fill-rule:nonzero;stroke:none"
             id="path716" /></g><g
           id="g718"
           transform="translate(253.9629,409.6404)"><path
             d="m 0,0 h -1.614 v 3.114 c 0,0.658 -0.034,1.085 -0.103,1.278 -0.069,0.194 -0.182,0.344 -0.336,0.451 -0.156,0.107 -0.342,0.161 -0.561,0.161 -0.279,0 -0.53,-0.077 -0.752,-0.23 C -3.588,4.621 -3.741,4.418 -3.823,4.165 -3.906,3.912 -3.946,3.444 -3.946,2.763 V 0 h -1.615 v 6.102 h 1.5 V 5.205 c 0.532,0.69 1.202,1.034 2.01,1.034 0.357,0 0.682,-0.064 0.977,-0.193 0.295,-0.128 0.518,-0.292 0.669,-0.49 C -0.253,5.357 -0.148,5.13 -0.089,4.877 -0.03,4.624 0,4.262 0,3.792 Z"
             style="fill:#034ea2;fill-opacity:1;fill-rule:nonzero;stroke:none"
             id="path720" /></g><g
           id="g722"
           transform="translate(261.15,409.6404)"><path
             d="m 0,0 h -1.614 v 3.114 c 0,0.658 -0.034,1.085 -0.103,1.278 -0.069,0.194 -0.182,0.344 -0.336,0.451 -0.156,0.107 -0.342,0.161 -0.561,0.161 -0.279,0 -0.53,-0.077 -0.752,-0.23 C -3.589,4.621 -3.741,4.418 -3.823,4.165 -3.906,3.912 -3.947,3.444 -3.947,2.763 V 0 h -1.614 v 6.102 h 1.5 V 5.205 c 0.532,0.69 1.202,1.034 2.01,1.034 0.357,0 0.682,-0.064 0.977,-0.193 0.295,-0.128 0.518,-0.292 0.669,-0.49 C -0.253,5.357 -0.148,5.13 -0.089,4.877 -0.03,4.624 0,4.262 0,3.792 Z"
             style="fill:#034ea2;fill-opacity:1;fill-rule:nonzero;stroke:none"
             id="path724" /></g><g
           id="g726"
           transform="translate(266.4129,413.2137)"><path
             d="m 0,0 c -0.012,0.467 -0.132,0.822 -0.362,1.066 -0.23,0.243 -0.51,0.365 -0.839,0.365 -0.352,0 -0.643,-0.128 -0.873,-0.386 C -2.304,0.789 -2.416,0.441 -2.413,0 Z M -0.092,-1.632 1.517,-1.901 C 1.31,-2.491 0.983,-2.94 0.537,-3.249 0.091,-3.557 -0.467,-3.711 -1.137,-3.711 c -1.061,0 -1.846,0.347 -2.356,1.04 -0.402,0.555 -0.604,1.256 -0.604,2.102 0,1.012 0.265,1.804 0.794,2.376 0.529,0.572 1.196,0.859 2.005,0.859 0.907,0 1.624,-0.3 2.148,-0.899 0.525,-0.6 0.775,-1.518 0.752,-2.755 h -4.044 c 0.012,-0.478 0.142,-0.851 0.391,-1.117 0.249,-0.267 0.559,-0.4 0.931,-0.4 0.253,0 0.465,0.07 0.638,0.207 0.172,0.139 0.302,0.36 0.39,0.666"
             style="fill:#034ea2;fill-opacity:1;fill-rule:nonzero;stroke:none"
             id="path728" /></g></g></g></g></svg>
