<?xml version="1.0" encoding="UTF-8" standalone="no"?>
<svg
   xmlns:dc="http://purl.org/dc/elements/1.1/"
   xmlns:cc="http://creativecommons.org/ns#"
   xmlns:rdf="http://www.w3.org/1999/02/22-rdf-syntax-ns#"
   xmlns:svg="http://www.w3.org/2000/svg"
   xmlns="http://www.w3.org/2000/svg"
   xmlns:sodipodi="http://sodipodi.sourceforge.net/DTD/sodipodi-0.dtd"
   xmlns:inkscape="http://www.inkscape.org/namespaces/inkscape"
   version="1.1"
   id="svg2"
   xml:space="preserve"
   width="266.30106"
   height="232.48332"
   viewBox="0 0 266.30106 232.48332"
   sodipodi:docname="logo-CNES.svg"
   inkscape:version="1.0.2 (e86c870879, 2021-01-15)"><metadata
     id="metadata8"><rdf:RDF><cc:Work
         rdf:about=""><dc:format>image/svg+xml</dc:format><dc:type
           rdf:resource="http://purl.org/dc/dcmitype/StillImage" /><dc:title></dc:title></cc:Work></rdf:RDF></metadata><defs
     id="defs6"><clipPath
       clipPathUnits="userSpaceOnUse"
       id="clipPath18"><path
         d="M 0,841.89 H 595.28 V 0 H 0 Z"
         id="path16" /></clipPath></defs><sodipodi:namedview
     pagecolor="#ffffff"
     bordercolor="#666666"
     borderopacity="1"
     objecttolerance="10"
     gridtolerance="10"
     guidetolerance="10"
     inkscape:pageopacity="0"
     inkscape:pageshadow="2"
     inkscape:window-width="1094"
     inkscape:window-height="480"
     id="namedview4"
     showgrid="false"
     fit-margin-top="3"
     fit-margin-left="3"
     fit-margin-bottom="3"
     fit-margin-right="3"
     inkscape:zoom="0.64764992"
     inkscape:cx="133.15081"
     inkscape:cy="116.2416"
     inkscape:window-x="0"
     inkscape:window-y="27"
     inkscape:window-maximized="0"
     inkscape:current-layer="g10" /><g
     id="g10"
     inkscape:groupmode="layer"
     inkscape:label="is_logo_2017_catalogue_logos_triangulaire"
     transform="matrix(1.3333333,0,0,-1.3333333,-263.70253,677.50158)"><g
       id="g12"><g
         id="g14"
         clip-path="url(#clipPath18)"><g
           id="g20"
           transform="translate(322.6025,411.7592)"><path
             d="m 0,0 c -13.421,0.195 -28.375,11.81 -28.375,30.894 v 63.223 h -4.458 V 60.432 c -19.345,-4.197 -33.749,-20.225 -33.749,-39.416 0,-22.345 19.561,-40.466 43.74,-40.466 18.376,0 34.06,10.532 40.541,25.434 C 13.561,2.389 6.451,-0.082 0,0"
             style="fill:#165096;fill-opacity:1;fill-rule:nonzero;stroke:none"
             id="path22" /></g><g
           id="g24"
           transform="translate(300.0371,473.2509)"><path
             d="M 0,0 C 1.848,0.222 24.264,-0.074 37.354,-19.898 41.768,-26.575 37.468,-34.914 24.187,-35.362 19.452,-35.509 2.515,-31.212 0,0"
             style="fill:#165096;fill-opacity:1;fill-rule:nonzero;stroke:none"
             id="path26" /></g><g
           id="g28"
           transform="translate(271.3896,380.225)"><path
             d="m 0,0 c -11.311,0 -22.75,-4.668 -22.75,-21.47 v -22.741 h 10.103 v 22.583 c 0,11.334 7.313,13.95 12.647,13.95 5.332,0 12.643,-2.616 12.643,-13.95 V -44.211 H 22.744 V -21.47 C 22.744,-4.668 11.307,0 0,0"
             style="fill:#165096;fill-opacity:1;fill-rule:nonzero;stroke:none"
             id="path30" /></g><g
           id="g32"
           transform="translate(200.0269,357.5101)"><path
             d="m 0,0 c 0,-10.685 4.668,-21.496 21.468,-21.496 h 20.555 v 7.541 H 24.094 c -11.338,0 -13.571,8.74 -13.571,13.955 0,5.205 2.233,14.077 13.571,14.077 h 17.929 v 7.416 H 21.468 C 4.668,21.493 0,10.683 0,0"
             style="fill:#165096;fill-opacity:1;fill-rule:nonzero;stroke:none"
             id="path34" /></g><g
           id="g36"
           transform="translate(310.9248,354.0277)"><path
             d="m 0,0 h 35.175 c 0.02,1.206 0,3.191 0,3.191 0,19.142 -12.552,23.006 -23.952,23.006 -16.039,0 -21.978,-11.47 -21.978,-22.104 l -0.01,-0.611 c 0,-10.684 4.675,-21.496 21.476,-21.496 h 23.2 v 7.541 H 13.337 C 3.919,-10.473 0.789,-5.042 0,0 M 24.39,6.505 H 0.012 c 0,3.675 0.257,13.12 12.074,13.12 14.04,0 12.304,-13.12 12.304,-13.12"
             style="fill:#165096;fill-opacity:1;fill-rule:nonzero;stroke:none"
             id="path38" /></g><g
           id="g40"
           transform="translate(377.5967,360.8676)"><path
             d="m 0,0 h -5.675 c -5.322,0 -8.638,1.693 -8.638,5.488 0,3.683 2.597,5.178 8.001,5.232 h 22.321 v 7.416 H -6.228 c -9.033,0 -19.271,-1.509 -19.271,-12.65 0,-12.17 13.629,-11.983 17.656,-11.983 h 5.671 c 5.324,0 8.639,-1.692 8.639,-5.49 0,-3.678 -2.601,-5.174 -8.006,-5.227 h -22.315 v -7.418 h 22.237 c 9.037,0 19.273,1.508 19.273,12.649 C 17.656,0.193 4.025,0 0,0"
             style="fill:#165096;fill-opacity:1;fill-rule:nonzero;stroke:none"
             id="path42" /></g><g
           id="g44"
           transform="translate(322.6025,411.7592)"><path
             d="m 0,0 c -13.421,0.195 -28.375,11.81 -28.375,30.894 v 63.223 h -4.458 V 60.432 c -19.345,-4.197 -33.749,-20.225 -33.749,-39.416 0,-22.345 19.561,-40.466 43.74,-40.466 18.376,0 34.06,10.532 40.541,25.434 C 13.561,2.389 6.451,-0.082 0,0"
             style="fill:#165096;fill-opacity:1;fill-rule:nonzero;stroke:none"
             id="path46" /></g><g
           id="g48"
           transform="translate(300.0371,473.2509)"><path
             d="M 0,0 C 1.848,0.222 24.264,-0.074 37.354,-19.898 41.768,-26.575 37.468,-34.914 24.187,-35.362 19.452,-35.509 2.515,-31.212 0,0"
             style="fill:#165096;fill-opacity:1;fill-rule:nonzero;stroke:none"
             id="path50" /></g><g
           id="g52"
           transform="translate(271.3896,380.225)"><path
             d="m 0,0 c -11.311,0 -22.75,-4.668 -22.75,-21.47 v -22.741 h 10.103 v 22.583 c 0,11.334 7.313,13.95 12.647,13.95 5.332,0 12.643,-2.616 12.643,-13.95 V -44.211 H 22.744 V -21.47 C 22.744,-4.668 11.307,0 0,0"
             style="fill:#165096;fill-opacity:1;fill-rule:nonzero;stroke:none"
             id="path54" /></g><g
           id="g56"
           transform="translate(200.0269,357.5101)"><path
             d="m 0,0 c 0,-10.685 4.668,-21.496 21.468,-21.496 h 20.555 v 7.541 H 24.094 c -11.338,0 -13.571,8.74 -13.571,13.955 0,5.205 2.233,14.077 13.571,14.077 h 17.929 v 7.416 H 21.468 C 4.668,21.493 0,10.683 0,0"
             style="fill:#165096;fill-opacity:1;fill-rule:nonzero;stroke:none"
             id="path58" /></g><g
           id="g60"
           transform="translate(310.9248,354.0277)"><path
             d="m 0,0 h 35.175 c 0.02,1.206 0,3.191 0,3.191 0,19.142 -12.552,23.006 -23.952,23.006 -16.039,0 -21.978,-11.47 -21.978,-22.104 l -0.01,-0.611 c 0,-10.684 4.675,-21.496 21.476,-21.496 h 23.2 v 7.541 H 13.337 C 3.919,-10.473 0.789,-5.042 0,0 M 24.39,6.505 H 0.012 c 0,3.675 0.257,13.12 12.074,13.12 14.04,0 12.304,-13.12 12.304,-13.12"
             style="fill:#165096;fill-opacity:1;fill-rule:nonzero;stroke:none"
             id="path62" /></g><g
           id="g64"
           transform="translate(377.5967,360.8676)"><path
             d="m 0,0 h -5.675 c -5.322,0 -8.638,1.693 -8.638,5.488 0,3.683 2.597,5.178 8.001,5.232 h 22.321 v 7.416 H -6.228 c -9.033,0 -19.271,-1.509 -19.271,-12.65 0,-12.17 13.629,-11.983 17.656,-11.983 h 5.671 c 5.324,0 8.639,-1.692 8.639,-5.49 0,-3.678 -2.601,-5.174 -8.006,-5.227 h -22.315 v -7.418 h 22.237 c 9.037,0 19.273,1.508 19.273,12.649 C 17.656,0.193 4.025,0 0,0"
             style="fill:#165096;fill-opacity:1;fill-rule:nonzero;stroke:none"
             id="path66" /></g></g></g></g></svg>
