<?xml version="1.0" encoding="UTF-8" standalone="no"?>
<svg
   xmlns:dc="http://purl.org/dc/elements/1.1/"
   xmlns:cc="http://creativecommons.org/ns#"
   xmlns:rdf="http://www.w3.org/1999/02/22-rdf-syntax-ns#"
   xmlns:svg="http://www.w3.org/2000/svg"
   xmlns="http://www.w3.org/2000/svg"
   xmlns:sodipodi="http://sodipodi.sourceforge.net/DTD/sodipodi-0.dtd"
   xmlns:inkscape="http://www.inkscape.org/namespaces/inkscape"
   version="1.1"
   id="svg2"
   xml:space="preserve"
   width="687.50574"
   height="677.63861"
   viewBox="0 0 687.50573 677.63862"
   sodipodi:docname="logo-CTG.svg"
   inkscape:version="1.0.2 (e86c870879, 2021-01-15)"><metadata
     id="metadata8"><rdf:RDF><cc:Work
         rdf:about=""><dc:format>image/svg+xml</dc:format><dc:type
           rdf:resource="http://purl.org/dc/dcmitype/StillImage" /><dc:title></dc:title></cc:Work></rdf:RDF></metadata><defs
     id="defs6"><clipPath
       clipPathUnits="userSpaceOnUse"
       id="clipPath18"><path
         d="M 0,595.28 H 841.89 V 0 H 0 Z"
         id="path16" /></clipPath></defs><sodipodi:namedview
     pagecolor="#ffffff"
     bordercolor="#666666"
     borderopacity="1"
     objecttolerance="10"
     gridtolerance="10"
     guidetolerance="10"
     inkscape:pageopacity="0"
     inkscape:pageshadow="2"
     inkscape:window-width="1680"
     inkscape:window-height="999"
     id="namedview4"
     showgrid="false"
     fit-margin-top="3"
     fit-margin-left="3"
     fit-margin-bottom="3"
     fit-margin-right="3"
     inkscape:zoom="0.91595552"
     inkscape:cx="343.09348"
     inkscape:cy="338.95771"
     inkscape:window-x="0"
     inkscape:window-y="27"
     inkscape:window-maximized="1"
     inkscape:current-layer="g10" /><g
     id="g10"
     inkscape:groupmode="layer"
     inkscape:label="logo-CTG"
     transform="matrix(1.3333333,0,0,-1.3333333,-218.16653,735.81105)"><g
       id="g12"><g
         id="g14"
         clip-path="url(#clipPath18)"><g
           id="g20"
           transform="translate(612.0989,549.6083)"><path
             d="m 0,0 c 0,0 -85.666,-18.41 -123.727,-57.314 -15.073,-9.561 -180.754,-82.667 -181.35,-89.067 2.108,-3.144 182.558,85.149 182.558,85.149 C -107.581,-57.61 -36.814,-37.244 0,0"
             style="fill:#f63440;fill-opacity:1;fill-rule:nonzero;stroke:none"
             id="path22" /></g><g
           id="g24"
           transform="translate(665.9648,527.565)"><path
             d="m 0,0 c 0,0 -85.666,-18.41 -123.727,-57.314 -15.073,-9.561 -162.451,-76.04 -163.047,-82.44 2.108,-3.144 164.255,78.522 164.255,78.522 C -107.581,-57.61 -36.814,-37.244 0,0"
             style="fill:#0071ce;fill-opacity:1;fill-rule:nonzero;stroke:none"
             id="path26" /></g><g
           id="g28"
           transform="translate(666.4537,435.391)"><path
             d="m 0,0 c 0,0 -85.666,-18.41 -123.727,-57.314 -15.073,-9.561 -73.488,-30.103 -74.084,-36.504 2.108,-3.144 75.292,32.586 75.292,32.586 C -107.581,-57.61 -36.814,-37.244 0,0"
             style="fill:#222222;fill-opacity:1;fill-rule:nonzero;stroke:none"
             id="path30" /></g><g
           id="g32"
           transform="translate(677.0042,487.3032)"><path
             d="m 0,0 c 0,0 -85.666,-18.41 -123.727,-57.314 -15.073,-9.561 -152.178,-67.915 -152.774,-74.315 2.108,-3.144 153.982,70.397 153.982,70.397 C -107.581,-57.61 -36.814,-37.244 0,0"
             style="fill:#fed857;fill-opacity:1;fill-rule:nonzero;stroke:none"
             id="path34" /></g><g
           id="g36"
           transform="translate(441.1212,471.9058)"><path
             d="m 0,0 c -90.742,62.264 -181.471,66.802 -232.06,52.022 0,0 96.754,24.846 217.692,-58.575 C -9.624,-4.39 -4.83,-2.204 0,0"
             style="fill:#00953b;fill-opacity:1;fill-rule:nonzero;stroke:none"
             id="path38" /></g><g
           id="g40"
           transform="translate(479.6571,441.4745)"><path
             d="m 0,0 c -7.544,6.962 -16.494,14.534 -25.201,21.017 -2.057,1.531 -3.378,2.449 -5.438,3.92 -4.822,-2.207 -9.609,-4.396 -14.364,-6.567 4.509,-3.223 8.304,-6.006 12.869,-9.536 6.214,-4.807 12.426,-10.013 18.116,-15.025 z"
             style="fill:#00953b;fill-opacity:1;fill-rule:nonzero;stroke:none"
             id="path42" /></g><g
           id="g44"
           transform="translate(508.807,410.7615)"><path
             d="M 0,0 C -7.506,8.694 -15.106,17.052 -22.936,24.786 L -36.552,18.513 C -28.393,10.924 -20.2,2.696 -12.212,-5.79 Z"
             style="fill:#00953b;fill-opacity:1;fill-rule:nonzero;stroke:none"
             id="path46" /></g><g
           id="g48"
           transform="translate(528.5791,364.2638)"><path
             d="m 0,0 c 33.288,-47.958 46.496,-88.194 46.496,-88.194 0,0 -7.907,42.344 -37.236,92.335 z"
             style="fill:#00953b;fill-opacity:1;fill-rule:nonzero;stroke:none"
             id="path50" /></g><g
           id="g52"
           transform="translate(533.6504,375.4217)"><path
             d="M 0,0 C -5.789,9.483 -12.413,19.015 -20.071,28.553 L -31.858,23.044 C -23.501,13.662 -16.353,4.536 -9.776,-4.734 Z"
             style="fill:#00953b;fill-opacity:1;fill-rule:nonzero;stroke:none"
             id="path54" /></g><g
           id="g56"
           transform="translate(542.9552,300.6546)"><path
             d="m 0,0 c -21.094,-35.757 -42.826,-71.154 -64.991,-106.255 -17.099,-27.077 -34.515,-53.978 -52.846,-80.241 -12.363,-17.712 -24.944,-37.084 -41.174,-51.582 -2.081,-1.858 -6.144,-6.048 -8.326,-3.288 -2.688,3.399 -5.354,6.806 -8.248,10.035 -8.215,9.167 -18.262,16.241 -29.389,21.444 -18.712,8.75 -39.76,11.821 -60.193,13.038 -35.66,2.125 -71.657,-2.398 -106.738,-8.4 v -12.403 c 32.504,22.314 65.435,47.687 81.099,85.107 1.486,3.55 -3.082,9.724 -1.625,13.207 -15.664,-37.42 -46.97,-63.597 -79.474,-85.911 -1.184,-0.813 0.956,-12.239 0,-12.403 43.307,7.41 88.661,12.871 132.383,5.593 20.881,-3.476 41.534,-10.903 57.484,-25.194 4.741,-4.248 8.862,-9.106 12.796,-14.093 1.428,-1.81 2.252,-4.255 4.618,-3.155 2.55,1.184 4.75,3.215 6.798,5.094 16.499,15.135 29.31,35.153 42.005,53.401 C -74.532,-136.657 -36.728,-74.661 0,-12.403 1.833,-9.297 -1.784,-3.024 0,0"
             style="fill:#00953b;fill-opacity:1;fill-rule:nonzero;stroke:none"
             id="path58" /></g><g
           id="g60"
           transform="translate(258.9279,509.6268)"><path
             d="m 0,0 c -37.313,-38.321 -65.313,-96.05 -52.292,-149.444 -0.946,3.879 6.602,4.329 5.646,8.25 -7.024,28.801 2.786,64.225 18.78,91.434 7.8,13.269 17.096,26.296 27.866,37.357 C 2.111,-10.235 -2.02,-2.074 0,0"
             style="fill:#00953b;fill-opacity:1;fill-rule:nonzero;stroke:none"
             id="path62" /></g><g
           id="g64"
           transform="translate(191.8208,346.9309)"><path
             d="m 0,0 c 4.018,0 7.979,-0.918 11.251,-2.698 v -3.444 c -2.928,1.894 -6.831,2.927 -10.734,2.927 -8.783,0 -17.968,-5.682 -17.968,-17.91 -0.057,-11.595 9.357,-17.106 18.14,-17.106 4.248,0 8.036,1.033 10.964,2.928 V -38.69 C 8.381,-40.47 4.363,-41.445 0,-41.445 c -10.046,0 -20.952,6.831 -20.895,20.32 C -20.895,-7.118 -10.275,0 0,0"
             style="fill:#1d1d1b;fill-opacity:1;fill-rule:nonzero;stroke:none"
             id="path66" /></g><g
           id="g68"
           transform="translate(221.9014,331.2024)"><path
             d="m 0,0 c -6.143,0 -11.251,-4.133 -11.251,-11.309 0,-7.175 5.108,-11.308 11.251,-11.308 6.084,0 11.193,4.133 11.193,11.308 C 11.193,-4.133 6.084,0 0,0 m -0.058,3.1 c 7.52,0 14.523,-5.109 14.523,-14.409 0,-9.299 -7.003,-14.408 -14.523,-14.408 -7.404,0 -14.465,5.109 -14.465,14.408 0,9.3 7.061,14.409 14.465,14.409"
             style="fill:#1d1d1b;fill-opacity:1;fill-rule:nonzero;stroke:none"
             id="path70" /></g><path
           d="M 246.872,306.117 H 243.6 v 41.905 h 3.272 z"
           style="fill:#1d1d1b;fill-opacity:1;fill-rule:nonzero;stroke:none"
           id="path72" /><path
           d="m 259.443,306.117 h -3.272 v 41.905 h 3.272 z"
           style="fill:#1d1d1b;fill-opacity:1;fill-rule:nonzero;stroke:none"
           id="path74" /><g
           id="g76"
           transform="translate(280.5103,331.3171)"><path
             d="M 0,0 C -5.396,0 -10.275,-3.501 -10.563,-10.046 H 9.472 C 9.931,-6.142 7.75,0 0,0 m -0.229,2.985 c 10.447,0 14.006,-8.668 12.571,-15.901 h -22.905 c 0.402,-7.003 6.2,-9.931 12.342,-9.931 3.33,0 6.659,0.862 9.013,2.239 v -3.214 c -2.469,-1.321 -5.97,-2.01 -9.472,-2.01 -8.036,0 -15.154,4.478 -15.154,14.409 0,9.471 6.945,14.408 13.605,14.408"
             style="fill:#1d1d1b;fill-opacity:1;fill-rule:nonzero;stroke:none"
             id="path78" /></g><g
           id="g80"
           transform="translate(313.001,334.302)"><path
             d="m 0,0 c 2.928,0 5.97,-0.631 8.324,-2.239 v -3.157 c -2.124,1.607 -5.11,2.411 -7.922,2.411 -5.913,0 -11.998,-3.387 -11.998,-11.538 0,-7.749 5.741,-11.309 11.654,-11.309 3.042,0 6.142,0.804 8.552,2.239 v -3.272 c -2.64,-1.32 -5.682,-1.951 -9.012,-1.951 -7.118,0 -14.466,4.477 -14.466,14.235 C -14.868,-4.42 -7.175,0 0,0"
             style="fill:#1d1d1b;fill-opacity:1;fill-rule:nonzero;stroke:none"
             id="path82" /></g><g
           id="g84"
           transform="translate(333.207,343.3142)"><path
             d="m 0,0 v -9.644 h 11.538 v -3.042 H 0 v -15.958 c 0,-4.363 2.066,-6.085 6.372,-6.085 2.239,0 4.305,0.517 6.027,1.263 v -2.985 c -1.836,-0.804 -4.305,-1.32 -6.888,-1.32 -5.282,0 -8.725,2.87 -8.725,8.553 v 16.532 h -5.167 v 3.042 h 5.167 v 8.783 z"
             style="fill:#1d1d1b;fill-opacity:1;fill-rule:nonzero;stroke:none"
             id="path86" /></g><path
           d="m 351.117,333.671 h 3.272 v -27.554 h -3.272 z m 1.607,6.199 c -1.205,0 -2.239,0.689 -2.239,2.181 0,1.378 1.034,2.182 2.239,2.182 1.149,0 2.182,-0.804 2.182,-2.182 0,-1.492 -1.033,-2.181 -2.182,-2.181"
           style="fill:#1d1d1b;fill-opacity:1;fill-rule:nonzero;stroke:none"
           id="path88" /><g
           id="g90"
           transform="translate(388.4292,333.6706)"><path
             d="m 0,0 -12.457,-27.554 h -3.444 L -28.415,0 h 3.617 L -14.179,-23.88 -3.616,0 Z"
             style="fill:#1d1d1b;fill-opacity:1;fill-rule:nonzero;stroke:none"
             id="path92" /></g><path
           d="m 394.113,333.671 h 3.272 v -27.554 h -3.272 z m 1.607,6.199 c -1.205,0 -2.239,0.689 -2.239,2.181 0,1.378 1.034,2.182 2.239,2.182 1.149,0 2.182,-0.804 2.182,-2.182 0,-1.492 -1.033,-2.181 -2.182,-2.181"
           style="fill:#1d1d1b;fill-opacity:1;fill-rule:nonzero;stroke:none"
           id="path94" /><g
           id="g96"
           transform="translate(411.334,343.3142)"><path
             d="m 0,0 v -9.644 h 11.539 v -3.042 H 0 v -15.958 c 0,-4.363 2.066,-6.085 6.372,-6.085 2.239,0 4.306,0.517 6.027,1.263 v -2.985 c -1.836,-0.804 -4.305,-1.32 -6.888,-1.32 -5.282,0 -8.725,2.87 -8.725,8.553 v 16.532 h -5.167 v 3.042 h 5.167 v 8.783 z"
             style="fill:#1d1d1b;fill-opacity:1;fill-rule:nonzero;stroke:none"
             id="path98" /></g><g
           id="g100"
           transform="translate(437.6826,337.8611)"><path
             d="M 0,0 5.166,8.151 H 9.242 L 3.56,0 Z m 3.329,-6.544 c -5.395,0 -10.274,-3.501 -10.561,-10.046 h 20.033 c 0.46,3.904 -1.722,10.046 -9.472,10.046 M 3.1,-3.559 c 10.448,0 14.006,-8.668 12.571,-15.901 H -7.232 c 0.401,-7.003 6.199,-9.931 12.341,-9.931 3.329,0 6.659,0.862 9.012,2.239 v -3.214 c -2.468,-1.321 -5.97,-2.009 -9.472,-2.009 -8.036,0 -15.154,4.477 -15.154,14.408 0,9.471 6.946,14.408 13.605,14.408"
             style="fill:#1d1d1b;fill-opacity:1;fill-rule:nonzero;stroke:none"
             id="path102" /></g><g
           id="g104"
           transform="translate(198.6519,288.8943)"><path
             d="m 0,0 v -3.272 h -14.695 v -36.911 h -3.387 V -3.272 H -32.777 V 0 Z"
             style="fill:#1d1d1b;fill-opacity:1;fill-rule:nonzero;stroke:none"
             id="path106" /></g><g
           id="g108"
           transform="translate(210.4209,273.9118)"><path
             d="M 0,0 C -5.396,0 -10.275,-3.502 -10.563,-10.046 H 9.472 C 9.931,-6.143 7.75,0 0,0 m -0.229,2.985 c 10.447,0 14.006,-8.668 12.571,-15.901 h -22.905 c 0.402,-7.003 6.2,-9.931 12.342,-9.931 3.33,0 6.659,0.862 9.013,2.24 v -3.215 c -2.469,-1.321 -5.97,-2.01 -9.472,-2.01 -8.036,0 -15.154,4.478 -15.154,14.408 0,9.472 6.945,14.409 13.605,14.409"
             style="fill:#1d1d1b;fill-opacity:1;fill-rule:nonzero;stroke:none"
             id="path110" /></g><g
           id="g112"
           transform="translate(246.2988,276.8396)"><path
             d="m 0,0 v -3.272 c -6.027,0.459 -10.39,-3.272 -11.825,-8.037 v -16.819 h -3.272 v 27.554 h 2.928 V -6.946 C -10.161,-2.87 -5.454,0.287 0,0"
             style="fill:#1d1d1b;fill-opacity:1;fill-rule:nonzero;stroke:none"
             id="path114" /></g><g
           id="g116"
           transform="translate(267.8823,276.8396)"><path
             d="m 0,0 v -3.272 c -6.027,0.459 -10.39,-3.272 -11.825,-8.037 v -16.819 h -3.272 v 27.554 h 2.928 V -6.946 C -10.161,-2.87 -5.454,0.287 0,0"
             style="fill:#1d1d1b;fill-opacity:1;fill-rule:nonzero;stroke:none"
             id="path118" /></g><path
           d="m 274.542,276.265 h 3.272 v -27.554 h -3.272 z m 1.606,6.2 c -1.205,0 -2.238,0.689 -2.238,2.181 0,1.378 1.033,2.182 2.238,2.182 1.149,0 2.182,-0.804 2.182,-2.182 0,-1.492 -1.033,-2.181 -2.182,-2.181"
           style="fill:#1d1d1b;fill-opacity:1;fill-rule:nonzero;stroke:none"
           id="path120" /><g
           id="g122"
           transform="translate(293.0249,285.9089)"><path
             d="m 0,0 v -9.644 h 11.538 v -3.042 H 0 v -15.959 c 0,-4.362 2.066,-6.084 6.372,-6.084 2.238,0 4.305,0.517 6.027,1.263 v -2.985 c -1.836,-0.804 -4.305,-1.32 -6.888,-1.32 -5.282,0 -8.725,2.87 -8.725,8.553 v 16.532 h -5.167 v 3.042 h 5.167 v 8.784 z"
             style="fill:#1d1d1b;fill-opacity:1;fill-rule:nonzero;stroke:none"
             id="path124" /></g><g
           id="g126"
           transform="translate(324.6548,273.7966)"><path
             d="m 0,0 c -6.143,0 -11.251,-4.133 -11.251,-11.309 0,-7.174 5.108,-11.307 11.251,-11.307 6.084,0 11.193,4.133 11.193,11.307 C 11.193,-4.133 6.084,0 0,0 m -0.058,3.101 c 7.52,0 14.523,-5.11 14.523,-14.41 0,-9.298 -7.003,-14.408 -14.523,-14.408 -7.405,0 -14.465,5.11 -14.465,14.408 0,9.3 7.06,14.41 14.465,14.41"
             style="fill:#1d1d1b;fill-opacity:1;fill-rule:nonzero;stroke:none"
             id="path128" /></g><g
           id="g130"
           transform="translate(362.541,276.8396)"><path
             d="m 0,0 v -3.272 c -6.027,0.459 -10.39,-3.272 -11.825,-8.037 v -16.819 h -3.272 v 27.554 h 2.928 V -6.946 C -10.161,-2.87 -5.454,0.287 0,0"
             style="fill:#1d1d1b;fill-opacity:1;fill-rule:nonzero;stroke:none"
             id="path132" /></g><path
           d="m 369.2,276.265 h 3.272 V 248.711 H 369.2 Z m 1.607,6.2 c -1.205,0 -2.239,0.689 -2.239,2.181 0,1.378 1.034,2.182 2.239,2.182 1.149,0 2.182,-0.804 2.182,-2.182 0,-1.492 -1.033,-2.181 -2.182,-2.181"
           style="fill:#1d1d1b;fill-opacity:1;fill-rule:nonzero;stroke:none"
           id="path134" /><g
           id="g136"
           transform="translate(390.6685,250.8933)"><path
             d="m 0,0 c 4.133,0 8.151,1.894 10.62,5.396 v 5.051 c -2.411,0.631 -5.453,1.148 -8.209,1.148 -4.535,0 -9.299,-1.492 -9.299,-6.084 C -6.888,1.722 -3.501,0 0,0 m 16.303,0.401 c 0.746,0 1.435,0.172 2.124,0.403 v -2.641 c -0.919,-0.345 -1.952,-0.574 -2.985,-0.574 -2.354,0 -4.478,1.148 -4.765,4.248 -2.755,-2.985 -6.716,-4.65 -11.308,-4.65 -4.822,0 -9.587,2.526 -9.587,8.151 0,6.831 6.315,9.013 12.17,9.013 2.927,0 6.027,-0.459 8.668,-1.205 v 1.836 c 0,4.822 -3.1,8.037 -8.783,8.037 -4.191,0 -7.577,-0.976 -9.873,-1.953 v 3.215 c 2.123,0.746 5.74,1.723 10.218,1.723 7.29,0 11.652,-4.076 11.652,-11.424 V 2.813 c 0,-1.837 1.148,-2.412 2.469,-2.412"
             style="fill:#1d1d1b;fill-opacity:1;fill-rule:nonzero;stroke:none"
             id="path138" /></g><path
           d="m 418.683,248.712 h -3.272 v 41.904 h 3.272 z"
           style="fill:#1d1d1b;fill-opacity:1;fill-rule:nonzero;stroke:none"
           id="path140" /><g
           id="g142"
           transform="translate(441.0127,273.9118)"><path
             d="M 0,0 C -5.396,0 -10.274,-3.502 -10.562,-10.046 H 9.472 C 9.932,-6.143 7.75,0 0,0 m -0.229,2.985 c 10.447,0 14.006,-8.668 12.571,-15.901 h -22.904 c 0.402,-7.003 6.2,-9.931 12.342,-9.931 3.329,0 6.658,0.862 9.012,2.24 v -3.215 c -2.468,-1.321 -5.97,-2.01 -9.472,-2.01 -8.036,0 -15.154,4.478 -15.154,14.408 0,9.472 6.946,14.409 13.605,14.409"
             style="fill:#1d1d1b;fill-opacity:1;fill-rule:nonzero;stroke:none"
             id="path144" /></g><g
           id="g146"
           transform="translate(187.3638,216.5066)"><path
             d="m 0,0 c -6.085,0 -10.85,-4.306 -10.85,-11.423 0,-7.061 4.765,-11.424 10.85,-11.424 5.338,0 9.472,3.559 11.079,7.693 v 7.462 C 9.472,-3.559 5.338,0 0,0 M 14.293,14.982 V -25.2 h -2.927 v 5.682 c -2.354,-3.501 -6.257,-6.314 -11.768,-6.314 -7.807,0 -13.72,5.913 -13.72,14.409 0,8.495 5.913,14.408 13.72,14.408 5.511,0 9.414,-2.813 11.481,-5.97 v 17.967 z"
             style="fill:#1d1d1b;fill-opacity:1;fill-rule:nonzero;stroke:none"
             id="path148" /></g><g
           id="g150"
           transform="translate(222.5527,216.5066)"><path
             d="M 0,0 C -5.396,0 -10.275,-3.502 -10.563,-10.046 H 9.472 C 9.931,-6.143 7.75,0 0,0 m -0.229,2.985 c 10.447,0 14.006,-8.668 12.571,-15.901 h -22.905 c 0.402,-7.003 6.2,-9.931 12.342,-9.931 3.33,0 6.659,0.862 9.013,2.239 v -3.214 c -2.469,-1.321 -5.97,-2.01 -9.472,-2.01 -8.036,0 -15.154,4.478 -15.154,14.409 0,9.471 6.945,14.408 13.605,14.408"
             style="fill:#1d1d1b;fill-opacity:1;fill-rule:nonzero;stroke:none"
             id="path152" /></g><g
           id="g154"
           transform="translate(275.0747,236.7644)"><path
             d="m 0,0 c 7.41,0 11.645,-2.117 11.645,-2.117 0,-1.744 -0.686,-3.55 -1.869,-4.671 0,0 -4.172,1.433 -9.091,1.433 -7.597,0 -13.202,-3.861 -13.202,-17.748 0,-13.886 5.605,-17.498 13.202,-17.498 2.864,0 5.106,0.373 5.667,0.498 v 14.385 h -9.03 c 0,0 -0.498,0.934 -0.498,2.553 0,1.682 0.498,2.615 0.498,2.615 H 12.33 v -23.414 c 0,0 -4.608,-2.117 -12.33,-2.117 -12.392,0 -19.117,7.847 -19.117,23.041 C -19.117,-7.971 -12.392,0 0,0"
             style="fill:#222222;fill-opacity:1;fill-rule:nonzero;stroke:none"
             id="path156" /></g><g
           id="g158"
           transform="translate(295.8149,223.6247)"><path
             d="M 0,0 C 0,0 1.059,0.437 3.113,0.437 5.23,0.437 6.227,0 6.227,0 v -22.417 c 0,-3.487 1.806,-5.48 5.791,-5.48 2.74,0 5.356,1.432 7.037,3.985 V 0 c 0,0 1.121,0.437 3.113,0.437 2.18,0 3.114,-0.437 3.114,-0.437 v -31.883 c 0,0 -0.934,-0.435 -3.114,-0.435 -1.992,0 -3.113,0.435 -3.113,0.435 v 2.865 c -2.242,-2.553 -5.542,-3.923 -9.403,-3.923 -6.227,0 -9.652,3.798 -9.652,9.403 z"
             style="fill:#222222;fill-opacity:1;fill-rule:nonzero;stroke:none"
             id="path160" /></g><g
           id="g162"
           transform="translate(345.0117,186.5114)"><path
             d="m 0,0 c -2.242,-6.85 -4.421,-10.772 -11.146,-10.772 -2.055,0 -3.425,0.622 -3.425,0.622 0,0.062 -0.436,1.058 -0.436,2.304 0,1.369 0.436,2.428 0.498,2.491 0,0 1.37,-0.249 2.802,-0.249 2.802,0 4.234,0.747 6.103,6.6 l 1.308,3.799 C -4.919,4.857 -5.604,4.92 -6.289,5.23 l -11.832,31.883 c 0,0 1.184,0.437 3.238,0.437 2.117,0 3.238,-0.437 3.238,-0.437 l 7.099,-18.929 c 1.557,-4.297 2.18,-7.287 2.18,-7.287 h 0.249 c 0,0 0.622,2.927 1.992,7.224 l 6.166,18.992 c 0,0 0.996,0.437 3.051,0.437 1.805,0 2.927,-0.437 2.927,-0.437 z"
             style="fill:#222222;fill-opacity:1;fill-rule:nonzero;stroke:none"
             id="path164" /></g><g
           id="g166"
           transform="translate(373.0361,206.6247)"><path
             d="m 0,0 c -4.172,0 -6.352,-1.619 -6.352,-5.542 0,-4.048 2.056,-5.604 5.418,-5.604 4.919,0 7.224,4.172 7.224,8.593 v 2.18 C 4.857,-0.249 2.366,0 0,0 m 0.623,18.059 c 9.029,0 11.894,-4.047 11.894,-12.08 v -20.862 c 0,0 -0.685,-0.435 -2.429,-0.435 -1.557,0 -2.491,0.435 -2.491,0.435 l -0.934,3.986 c -1.619,-3.3 -5.044,-5.044 -9.776,-5.044 -5.854,0 -9.653,3.424 -9.653,10.399 0,6.788 4.173,9.776 11.956,9.776 2.803,0 5.48,-0.186 7.1,-0.373 v 2.304 c 0,4.234 -1.62,6.663 -6.415,6.663 -4.358,0 -8.344,-1.557 -8.344,-1.557 -0.062,0.063 -0.809,0.561 -1.432,1.869 -0.56,1.307 -0.374,2.552 -0.374,2.615 0,0 4.671,2.304 10.898,2.304"
             style="fill:#222222;fill-opacity:1;fill-rule:nonzero;stroke:none"
             id="path168" /></g><g
           id="g170"
           transform="translate(419.6802,191.7419)"><path
             d="M 0,0 C 0,0 -1.059,-0.436 -3.113,-0.436 -5.23,-0.436 -6.227,0 -6.227,0 v 22.418 c 0,3.487 -1.806,5.479 -5.791,5.479 -2.74,0 -5.418,-1.494 -7.037,-3.985 V 0 c 0,0 -1.121,-0.436 -3.113,-0.436 -2.18,0 -3.114,0.436 -3.114,0.436 v 31.883 c 0,0 0.934,0.436 3.114,0.436 1.992,0 3.113,-0.436 3.113,-0.436 v -2.864 c 2.242,2.553 5.48,3.922 9.403,3.922 6.227,0 9.652,-3.797 9.652,-9.402 z"
             style="fill:#222222;fill-opacity:1;fill-rule:nonzero;stroke:none"
             id="path172" /></g><g
           id="g174"
           transform="translate(440.9814,219.7644)"><path
             d="M 0,0 C -4.048,0 -6.912,-2.678 -7.41,-9.59 H 5.916 c 0.063,0.498 0.187,1.494 0.187,2.802 C 6.103,-3.113 4.608,0 0,0 m -7.41,-14.011 c 0.498,-7.41 3.487,-9.777 8.656,-9.777 4.421,0 7.348,1.807 7.348,1.807 1.121,-0.998 1.93,-2.678 1.992,-4.485 0,0 -3.549,-2.615 -10.337,-2.615 -9.59,0 -14.073,5.916 -14.073,17.187 0,11.769 5.542,16.813 13.824,16.813 7.659,0 12.33,-4.234 12.33,-12.517 0,-3.923 -0.685,-6.413 -0.685,-6.413 z"
             style="fill:#222222;fill-opacity:1;fill-rule:nonzero;stroke:none"
             id="path176" /></g></g></g></g></svg>
